<svg id="Group_96" data-name="Group 96" xmlns="http://www.w3.org/2000/svg" width="21" height="21" viewBox="0 0 21 21">
  <g id="Group_86" data-name="Group 86" transform="translate(5 5)">
    <path id="Path_141" data-name="Path 141" d="M92.366,7.036h.648v5.158h-.649V7.037h0Zm-.182,5.524H93.2a.183.183,0,0,0,.183-.183V6.854a.183.183,0,0,0-.183-.183H92.185A.183.183,0,0,0,92,6.854v5.522A.183.183,0,0,0,92.185,12.56ZM90.6,8.15h.648v4.043H90.6V8.151h0Zm-.181,4.41h1.011a.183.183,0,0,0,.183-.183V7.969a.183.183,0,0,0-.183-.183H90.416a.184.184,0,0,0-.184.183v4.408a.183.183,0,0,0,.184.183ZM85.29,10.8h.648v1.4h-.649V10.8h0Zm-.183,1.765h1.012a.183.183,0,0,0,.183-.183V10.614a.183.183,0,0,0-.183-.183H85.107a.183.183,0,0,0-.183.183v1.763a.183.183,0,0,0,.183.183Zm1.952-3.72h.648v3.354h-.649V8.841h0Zm-.183,3.72h1.012a.183.183,0,0,0,.183-.183V8.658a.183.183,0,0,0-.183-.183H86.877a.183.183,0,0,0-.183.183v3.719A.183.183,0,0,0,86.877,12.56Zm1.952-2.879h.648v2.513h-.649V9.681h0Zm-.183,2.879h1.011a.183.183,0,0,0,.184-.183V9.5a.183.183,0,0,0-.184-.183H88.646a.183.183,0,0,0-.183.183v2.878A.183.183,0,0,0,88.646,12.56Zm4.729,2.077-4.252,2.456a1.278,1.278,0,0,1-.965.124l-1.7-.39a1.772,1.772,0,0,0-1.484.286h0l-.737-2.754h0l.935-.716a1.2,1.2,0,0,1,.921-.251l2.958.8a.7.7,0,1,1-.367,1.349l-1.587-.432a.182.182,0,0,0-.1.352l1.587.432a1.063,1.063,0,0,0,1.273-.649h0l2.9-1.676a.615.615,0,1,1,.615,1.065Zm-9.307,3.285h0l.692-.185h0l-1.021-3.808h0l-.692.185s0,0,0,0Zm-.329-4h0Zm10.176-.308a.981.981,0,0,0-1.336-.356l-2.654,1.532h0a1.065,1.065,0,0,0-.781-.944l-2.969-.808-.024,0a1.572,1.572,0,0,0-1.2.321l-.815.624h0l-.04-.149a.358.358,0,0,0-.438-.253l-.707.189a.36.36,0,0,0-.253.438l1.025,3.823a.357.357,0,0,0,.345.265.346.346,0,0,0,.092-.012l.707-.189a.358.358,0,0,0,.252-.438l-.042-.158h0a1.455,1.455,0,0,1,1.3-.308l1.7.39a1.931,1.931,0,0,0,.432.051,1.559,1.559,0,0,0,.795-.216l4.237-2.446a1,1,0,0,0,.374-1.349Z" transform="translate(-82.682 -6.671)" stroke="#000" stroke-width="0.2" fill-rule="evenodd"/>
  </g>
  <g id="Group_90" data-name="Group 90">
    <g id="Ellipse_6" data-name="Ellipse 6" fill="none" stroke="#000" stroke-width="1">
      <circle cx="10.5" cy="10.5" r="10.5" stroke="none"/>
      <circle cx="10.5" cy="10.5" r="10" fill="none"/>
    </g>
  </g>
</svg>
