<svg xmlns="http://www.w3.org/2000/svg" width="33" height="33" viewBox="0 0 33 33">
  <g id="Group_10" data-name="Group 10" transform="translate(-1243.206 -139)">
    <path id="Path_48" data-name="Path 48" d="M98.17,11.668a16.5,16.5,0,1,0,16.5,16.5,16.507,16.507,0,0,0-16.5-16.5Zm10.761,27.04v-.5a5.022,5.022,0,0,0-5.022-5.022H92.431a5.022,5.022,0,0,0-5.022,5.022v.5a15.055,15.055,0,0,0,21.522,0Zm1.345-1.575a15.065,15.065,0,1,0-24.212,0,6.458,6.458,0,0,1,6.367-5.377h11.478a6.458,6.458,0,0,1,6.367,5.377Z" transform="translate(1161.536 127.332)" fill="#fff" fill-rule="evenodd"/>
    <path id="Path_49" data-name="Path 49" d="M251.437,104.99a6.457,6.457,0,1,0,6.457,6.457A6.46,6.46,0,0,0,251.437,104.99Zm0,1.435a5.022,5.022,0,1,1-5.022,5.022A5.024,5.024,0,0,1,251.437,106.425Z" transform="translate(1008.268 39.749)" fill="#fff" fill-rule="evenodd"/>
  </g>
</svg>
