<svg xmlns="http://www.w3.org/2000/svg" width="17.094" height="19" viewBox="0 0 17.094 19">
  <path id="Path_207" data-name="Path 207" d="M215.949,123.12h-1.525a7.412,7.412,0,0,0-.794-3.146,2.556,2.556,0,0,0,1.811-2.415.508.508,0,1,0-1.017,0,1.508,1.508,0,0,1-1.3,1.493c-.159-.254-.381-.508-.572-.763a1.825,1.825,0,0,0-.35-.35,4.92,4.92,0,0,0,.223-1.366,4.512,4.512,0,1,0-9.024-.064,3.974,3.974,0,0,0,.223,1.366l-.35.35a5.936,5.936,0,0,0-.572.763,1.509,1.509,0,0,1-1.3-1.493.508.508,0,1,0-1.017,0,2.565,2.565,0,0,0,1.811,2.447,7.907,7.907,0,0,0-.794,3.146h-1.525a.478.478,0,1,0,0,.953H201.4a8.514,8.514,0,0,0,.794,3.082,2.517,2.517,0,0,0-1.811,2.383.508.508,0,0,0,1.017,0,1.508,1.508,0,0,1,1.3-1.493c.159.254.381.508.572.763a5.95,5.95,0,0,0,9.278,0,5.935,5.935,0,0,0,.572-.763,1.509,1.509,0,0,1,1.3,1.493.508.508,0,0,0,1.017,0,2.459,2.459,0,0,0-1.811-2.383,9.212,9.212,0,0,0,.794-3.082h1.525a.476.476,0,0,0,.508-.477.47.47,0,0,0-.509-.445Zm-7.721,6.672a.319.319,0,0,1-.635,0V118.037a.319.319,0,0,1,.635,0Z" transform="translate(-199.364 -112)" fill="#005b96"/>
</svg>
