<svg xmlns="http://www.w3.org/2000/svg" width="21.327" height="21.327" viewBox="0 0 21.327 21.327">
  <path id="Path_208" data-name="Path 208" d="M119.043,48.4l-19.7.028c-.084,0-.084-.028-.084-.084V45.767h1.231V44.423H99.256V41.765h1.231V40.421H99.256V37.762h1.231V36.419H99.256V33.788h1.231V32.445H99.256V29.786h1.231V28.443H97.773V49.573a.191.191,0,0,0,.2.2h21.019c.084,0,.112-.028.112-.112V48.482c0-.056,0-.056-.056-.056Zm-16.821-9.152c.112.112.168.084.28-.028l1.231-1.511c.112-.14.2-.14.364-.056l10.971,7.3c.14.112.224.056.308-.084l1.371-2.491c.056-.14.14-.14.252-.056l1.008.532-.084-4-3.443,2.1c.336.2.672.364,1.035.56a.136.136,0,0,1,.056.224l-.672,1.2c-.112.2-.14.224-.336.084l-10.776-7.193c-.112-.084-.168-.084-.252.028l-2.1,2.519c-.084.084-.056.14.028.224l.784.672Zm5.681-1.427c.084.056.14.056.224-.056l.392-.5c.084-.112.14-.112.28-.056l3.778,2.547c.14.084.168.084.252-.056l3.778-6.633c.084-.14.14-.168.28-.084l.952.532-.056-3.946-3.443,2.015,1.008.588c.14.084.14.14.056.252l-3.051,5.346c-.084.14-.14.168-.28.056l-3.61-2.407a.148.148,0,0,0-.224.028l-1.287,1.567c-.084.084-.084.112.028.2l.9.588Zm-5.653,6.773c.084.056.112.056.224-.056l3.75-4.506a.148.148,0,0,0-.028-.224l-.868-.588a.151.151,0,0,0-.224.056l-3.666,4.394c-.056.084-.112.14,0,.224l.84.7Z" transform="translate(-97.773 -28.443)" fill="#005b96"/>
</svg>
