<svg xmlns="http://www.w3.org/2000/svg" width="20.346" height="24.628" viewBox="0 0 20.346 24.628">
  <g id="Group_221" data-name="Group 221" transform="translate(-5925.45 848.245)">
    <path id="Path_245" data-name="Path 245" d="M123.552,42.14a.61.61,0,0,1-.208-.052.5.5,0,0,1-.26-.676,5.074,5.074,0,0,0,.208-.572c0-.052-.026-.13-.026-.182a3.072,3.072,0,0,0-.1-.52c-.286-.91-.624-1.821-.962-2.7v-.026c-.026-.078-.052-.156-.546-.1-.182.026-.338.026-.494.052a11.592,11.592,0,0,1-1.9.052c-1.639-.156-1.847-1.2-1.821-2.263v-.026a1.024,1.024,0,0,0-.13-.6,1.055,1.055,0,0,1-.312-1.2.75.75,0,0,1-.1-.286v-.026a.331.331,0,0,0-.026-.156,1.943,1.943,0,0,1,0-.676c.052-.26.026-.312.026-.312a1.123,1.123,0,0,0-.286-.156,3.22,3.22,0,0,1-.676-.26,1.265,1.265,0,0,1-.7-.78,1.394,1.394,0,0,1,.208-1.066c.234-.416.494-.832.728-1.248.286-.494.6-.988.884-1.483a1.51,1.51,0,0,0,.052-.624v-.234a2.989,2.989,0,0,0-.052-.416,2.327,2.327,0,0,1-.052-.962V24.61a18.089,18.089,0,0,1,.858-2.393,6.494,6.494,0,0,1,4.422-3.641,12.272,12.272,0,0,1,6.606-.208c2.939.78,6.138,3.381,6.138,7.048a8.719,8.719,0,0,1-.78,3.589c-1.326,2.783-1.587,4.057-.858,7.127a.157.157,0,0,1,.026.1,3.207,3.207,0,0,0,.39.754l1.118,1.3a.516.516,0,1,1-.78.676l-1.144-1.326c-.026-.026-.026-.052-.052-.052a3.309,3.309,0,0,1-.546-1.248c-.832-3.3-.52-4.786.885-7.777a7.6,7.6,0,0,0,.676-3.147c0-3.121-2.783-5.358-5.384-6.112a11.057,11.057,0,0,0-6.06.208,5.318,5.318,0,0,0-3.745,3.069,13.591,13.591,0,0,0-.78,2.237,1.948,1.948,0,0,0,.052.52,4.174,4.174,0,0,1,.078.6v.208a2.27,2.27,0,0,1-.182,1.17c-.286.494-.572,1.014-.884,1.509-.234.416-.494.832-.728,1.222a.635.635,0,0,0-.1.26s.026.052.208.156a2.509,2.509,0,0,0,.468.182h.026a1.277,1.277,0,0,1,.962,1.665.635.635,0,0,0,0,.312.414.414,0,0,1,.234.182.472.472,0,0,1-.026.6c-.1.156-.13.208-.156.234a.31.31,0,0,0,.1.1l.026.026a2.048,2.048,0,0,1,.39,1.353c-.026.988.156,1.118.884,1.2a9.249,9.249,0,0,0,1.691-.052c.156-.026.312-.026.468-.052a1.352,1.352,0,0,1,1.639.806c.338.884.676,1.821.962,2.731a2.84,2.84,0,0,1,.13.676c.026.078.026.182.052.26v.182a3.427,3.427,0,0,1-.312.91.4.4,0,0,1-.415.364Z" transform="translate(5810.506 -866.007)" fill="#005b96" stroke="#5881d8" stroke-width="0.5"/>
    <path id="Path_246" data-name="Path 246" d="M366.418,68.47c.022.045.022.089.045.112l-.515.582a2.071,2.071,0,0,0,.38.493l.627-.381a1.046,1.046,0,0,0,.224.112l.022.739a2.63,2.63,0,0,0,.6.067l.2-.716a.973.973,0,0,0,.112-.022c.045-.022.09-.022.112-.045l.56.515a2.073,2.073,0,0,0,.493-.381l-.381-.627a1.053,1.053,0,0,0,.112-.224l.739-.022a2.634,2.634,0,0,0,.067-.6l-.716-.179a.977.977,0,0,0-.022-.112c-.022-.045-.022-.089-.045-.112l.515-.56a2.072,2.072,0,0,0-.381-.493l-.627.381a1.047,1.047,0,0,0-.224-.112l-.022-.739a2.63,2.63,0,0,0-.6-.067l-.179.672a.976.976,0,0,0-.112.022c-.045.022-.112.022-.134.045l-.537-.515a2.071,2.071,0,0,0-.493.381l.381.627a1.05,1.05,0,0,0-.112.224h-.761a2.629,2.629,0,0,0-.067.6l.716.224a.968.968,0,0,0,.022.112Zm1.119-1.187a.815.815,0,1,1-.56,1.007A.869.869,0,0,1,367.538,67.283Z" transform="translate(5571.656 -910.729)" fill="#005b96" stroke="#5881d8" stroke-width="0.5"/>
    <path id="Path_247" data-name="Path 247" d="M202.369,71.611a3.011,3.011,0,0,0,.568-.663l.828.166a3.563,3.563,0,0,0,.308-.97l-.757-.355v-.45c-.024-.166-.047-.284-.071-.4l.663-.5a2.806,2.806,0,0,0-.5-.9l-.757.237a3.012,3.012,0,0,0-.663-.568l.166-.828a3.562,3.562,0,0,0-.97-.308l-.4.758h-.45c-.166.024-.284.047-.4.071l-.5-.663a2.805,2.805,0,0,0-.9.5l.284.781a3.011,3.011,0,0,0-.568.663l-.828-.166a3.563,3.563,0,0,0-.308.97l.757.355v.45c.024.166.047.284.071.4l-.663.5a2.806,2.806,0,0,0,.5.9l.781-.284a3.013,3.013,0,0,0,.663.568l-.166.8a2.37,2.37,0,0,0,.97.331l.355-.757h.45c.166-.024.284-.047.4-.071l.5.663a2.805,2.805,0,0,0,.9-.5Zm-1.657-.355a1.716,1.716,0,0,1-1.8-1.515,1.663,1.663,0,1,1,3.313-.284A1.7,1.7,0,0,1,200.712,71.256Z" transform="translate(5732.582 -910.727)" fill="#005b96" stroke="#5881d8" stroke-width="0.5"/>
    <path id="Path_248" data-name="Path 248" d="M320.87,168l1.076-.274a2.922,2.922,0,0,0-.105-.928l-1.118-.021a.975.975,0,0,0-.19-.316l.57-.97a3.164,3.164,0,0,0-.717-.57l-.823.759c-.063-.021-.106-.042-.19-.063a.754.754,0,0,0-.211-.042l-.274-1.076a2.921,2.921,0,0,0-.928.105v1.181a.975.975,0,0,0-.316.19l-.97-.57a2.958,2.958,0,0,0-.548.7l.759.823c-.021.063-.042.106-.063.19a.934.934,0,0,0-.042.211l-1.076.253a2.92,2.92,0,0,0,.106.928l1.118.021a.975.975,0,0,0,.19.316l-.57.97a3.164,3.164,0,0,0,.717.57l.823-.759a1.99,1.99,0,0,0,.19.063.751.751,0,0,0,.211.042l.274,1.076a2.921,2.921,0,0,0,.928-.105l.021-1.118a.975.975,0,0,0,.316-.19l.97.57a3.163,3.163,0,0,0,.57-.717l-.8-.823c.021-.063.042-.106.063-.19a1.088,1.088,0,0,0,.042-.232Zm-.886-.042a1.209,1.209,0,0,1-1.5.823,1.232,1.232,0,0,1-.823-1.5,1.209,1.209,0,0,1,1.5-.823A1.227,1.227,0,0,1,319.984,167.961Z" transform="translate(5620.201 -1003.974)" fill="#005b96" stroke="#5881d8" stroke-width="0.5"/>
  </g>
</svg>
