<svg xmlns="http://www.w3.org/2000/svg" width="21.64" height="21.658" viewBox="0 0 21.64 21.658">
  <path id="Path_249" data-name="Path 249" d="M155.8,94.274l8.645-8.645a3.942,3.942,0,0,0,5.221-4.8l-1.687,1.687a.856.856,0,0,1-.868.225l-1.165-.4a.676.676,0,0,1-.423-.423l-.4-1.177a.856.856,0,0,1,.225-.868l1.687-1.687h0a3.942,3.942,0,0,0-4.8,5.221l-8.647,8.653a3.942,3.942,0,0,0-5.221,4.8l1.687-1.687a.856.856,0,0,1,.859-.222l1.165.4a.677.677,0,0,1,.423.423l.411,1.174a.855.855,0,0,1-.225.868L151,99.5h0a3.942,3.942,0,0,0,4.8-5.221Z" transform="translate(-148.195 -78.013)" fill="#005b96"/>
</svg>
