<svg xmlns="http://www.w3.org/2000/svg" width="163.4" height="51.839" viewBox="0 0 163.4 51.839">
  <g id="Layer_1" data-name="Layer 1" transform="translate(24 -2.005)">
    <g id="Group_8" data-name="Group 8" transform="translate(-24 2.005)">
      <path id="Path_1" data-name="Path 1" d="M26.423,45.55c-4.667,0-8.463,3.518-8.463,7.842V66.8A1.522,1.522,0,0,0,21,66.8V53.392c0-2.646,2.428-4.8,5.418-4.8s5.418,2.151,5.418,4.8V66.8a1.522,1.522,0,0,0,3.045,0V53.392C34.885,49.068,31.09,45.55,26.423,45.55Z" transform="translate(-10.428 -26.45)" fill="#5881d8"/>
      <path id="Path_2" data-name="Path 2" d="M77.483,45.55c-4.667,0-8.463,3.518-8.463,7.842V66.8a1.522,1.522,0,0,0,3.045,0V53.392c0-2.646,2.428-4.8,5.418-4.8s5.418,2.151,5.418,4.8V66.8a1.522,1.522,0,0,0,3.045,0V53.392c0-4.324-3.8-7.842-8.463-7.842Z" transform="translate(-40.076 -26.45)" fill="#5881d8"/>
      <path id="Path_3" data-name="Path 3" d="M279.913,45.55c-4.667,0-8.463,3.518-8.463,7.842V66.8a1.522,1.522,0,0,0,3.045,0V53.392c0-2.646,2.428-4.8,5.418-4.8a1.522,1.522,0,1,0,0-3.045Z" transform="translate(-157.616 -26.45)" fill="#5881d8"/>
      <path id="Path_4" data-name="Path 4" d="M178.8,45.55c-4.667,0-8.463,3.518-8.463,7.842V76.767a1.522,1.522,0,0,0,3.045,0V53.392c0-2.646,2.428-4.8,5.418-4.8s5.418,2.151,5.418,4.8v7.087c0,2.646-2.428,4.8-5.418,4.8a1.522,1.522,0,0,0,0,3.045c4.667,0,8.463-3.518,8.463-7.842V53.392c0-4.324-3.8-7.842-8.463-7.842Z" transform="translate(-98.907 -26.45)" fill="#5881d8"/>
      <path id="Path_5" data-name="Path 5" d="M229.439,45.55a8.675,8.675,0,0,0-6.978,3.4,1.523,1.523,0,1,0,2.445,1.816,5.615,5.615,0,0,1,4.529-2.172c2.986,0,5.418,2.151,5.418,4.8v8.345a3.547,3.547,0,0,1-3.544,3.544h-3.564a3.3,3.3,0,1,1,0-6.6h3.866a1.522,1.522,0,1,0,0-3.045h-3.866a6.345,6.345,0,1,0,0,12.69h3.564a6.6,6.6,0,0,0,6.588-6.588V53.392c0-4.324-3.8-7.842-8.463-7.842Z" transform="translate(-128.555 -26.45)" fill="#5881d8"/>
      <path id="Path_6" data-name="Path 6" d="M128.548,47.675c2.986,0,5.418,2.151,5.418,4.8a1.522,1.522,0,1,0,3.044,0c0-4.324-3.8-7.842-8.463-7.842a8.494,8.494,0,0,0-7.779,4.751,4.235,4.235,0,0,0,1.749,5.405l10.5,5.837a1.282,1.282,0,0,1,.478,1.673,5.51,5.51,0,0,1-4.94,2.831c-2.986,0-5.418-2.151-5.418-4.8a1.522,1.522,0,1,0-3.045,0c0,4.324,3.8,7.842,8.463,7.842a8.572,8.572,0,0,0,7.653-4.491,4.333,4.333,0,0,0-1.627-5.674l-10.5-5.837a1.219,1.219,0,0,1-.545-1.514,5.448,5.448,0,0,1,5.015-2.986Z" transform="translate(-69.73 -25.916)" fill="#5881d8"/>
      <path id="Path_7" data-name="Path 7" d="M304.482,45.55a1.522,1.522,0,0,0-1.522,1.522V66.8a1.522,1.522,0,1,0,3.044,0V47.072A1.522,1.522,0,0,0,304.482,45.55Z" transform="translate(-175.913 -26.45)" fill="#5881d8"/>
      <path id="Path_8" data-name="Path 8" d="M326.756,65.716l-8.848-8.857,8.718-8.723a1.524,1.524,0,1,0-2.156-2.155l-9.8,9.8a1.529,1.529,0,0,0,0,2.155l9.926,9.93a1.524,1.524,0,0,0,2.155-2.155Z" transform="translate(-182.456 -26.442)" fill="#5881d8"/>
      <path id="Path_9" data-name="Path 9" d="M1.522,59.16A1.522,1.522,0,0,0,0,60.682V74.705a1.522,1.522,0,1,0,3.045,0V60.682A1.522,1.522,0,0,0,1.522,59.16Z" transform="translate(0 -34.353)" fill="#5881d8"/>
      <path id="Path_10" data-name="Path 10" d="M1.522,45.55a1.522,1.522,0,1,0,1.522,1.522A1.522,1.522,0,0,0,1.522,45.55Z" transform="translate(0 -26.45)" fill="#5881d8"/>
      <g id="Group_7" data-name="Group 7" transform="translate(126.36)">
        <g id="Group_2" data-name="Group 2" transform="translate(14.006 4.28)">
          <g id="Group_1" data-name="Group 1">
            <path id="Path_11" data-name="Path 11" d="M369.025,10.747a1.409,1.409,0,1,0,.164,1.476A1.407,1.407,0,0,0,369.025,10.747Z" transform="translate(-353.177 -10.21)" fill="#5881d8"/>
            <path id="Path_12" data-name="Path 12" d="M335.982,15.732a1.409,1.409,0,0,0,1.464-1.9,1.391,1.391,0,0,0-1.174-.906,1.409,1.409,0,0,0-1.464,1.9A1.39,1.39,0,0,0,335.982,15.732Z" transform="translate(-334.72 -11.786)" fill="#5881d8"/>
          </g>
          <path id="Path_13" data-name="Path 13" d="M347.971,17.269l-4.588,4.571h.008l-1.342,1.325a.879.879,0,0,1-1.468-.4l-.168-.633-.608-2.29a1.088,1.088,0,0,0-1.2-.814,1.053,1.053,0,0,0-.847,1.313l1.1,4.143a2.287,2.287,0,0,0,3.824,1.032l.31-.31,6.471-6.445a1.054,1.054,0,0,0-1.489-1.493Z" transform="translate(-336.464 -14.128)" fill="#91dc47"/>
        </g>
        <g id="Group_4" data-name="Group 4" transform="translate(21.036 10.993)">
          <g id="Group_3" data-name="Group 3" transform="translate(5.534)">
            <path id="Path_14" data-name="Path 14" d="M385.65,54.324a1.41,1.41,0,1,0-1.2.881A1.412,1.412,0,0,0,385.65,54.324Z" transform="translate(-375.28 -41.416)" fill="#5881d8"/>
            <path id="Path_15" data-name="Path 15" d="M364.807,28.2a1.409,1.409,0,1,0,.2-1.472A1.409,1.409,0,0,0,364.807,28.2Z" transform="translate(-364.682 -26.218)" fill="#5881d8"/>
          </g>
          <path id="Path_16" data-name="Path 16" d="M362.965,40.6l-6.253-1.69v.008l-1.816-.5a.881.881,0,0,1-.39-1.472l.465-.461,1.677-1.673a1.088,1.088,0,0,0,.1-1.447,1.054,1.054,0,0,0-1.56-.08l-3.036,3.024a2.285,2.285,0,0,0,1.019,3.825l.424.113,8.815,2.382a1.053,1.053,0,1,0,.549-2.034Z" transform="translate(-351.485 -30.143)" fill="#91dc47"/>
        </g>
        <g id="Group_5" data-name="Group 5">
          <path id="Path_17" data-name="Path 17" d="M322.626.053a1.407,1.407,0,1,1-1.724.994,1.407,1.407,0,0,1,1.724-.994Z" transform="translate(-312.663 -0.005)" fill="#5881d8"/>
          <path id="Path_18" data-name="Path 18" d="M302.55,30.393a1.406,1.406,0,1,1-1.216,1.573,1.407,1.407,0,0,1,1.216-1.573Z" transform="translate(-301.322 -17.643)" fill="#5881d8"/>
          <path id="Path_19" data-name="Path 19" d="M317.019,8.96a1.056,1.056,0,0,0-.965,1.325l2.269,8.538h0l.247.931a.878.878,0,0,1-1.078,1.074l-1.124-.3h0l-4.642-1.254a1.092,1.092,0,0,0-1.317.637,1.057,1.057,0,0,0,.713,1.384l5.338,1.443,1.363.369a2.462,2.462,0,0,0,3.019-3.011L318.1,9.786a1.082,1.082,0,0,0-1.082-.822Z" transform="translate(-306.561 -5.204)" fill="#91dc47"/>
        </g>
        <g id="Group_6" data-name="Group 6" transform="translate(19.368 23.008)">
          <path id="Path_20" data-name="Path 20" d="M356.567,93.82a1.407,1.407,0,1,1,1.724-.994A1.407,1.407,0,0,1,356.567,93.82Z" transform="translate(-352.162 -75.881)" fill="#5881d8"/>
          <path id="Path_21" data-name="Path 21" d="M376.64,63.466a1.408,1.408,0,1,1,1.216-1.577A1.407,1.407,0,0,1,376.64,63.466Z" transform="translate(-363.501 -58.233)" fill="#5881d8"/>
          <path id="Path_22" data-name="Path 22" d="M351.417,69.1a1.056,1.056,0,0,0,.964-1.325l-2.269-8.538h0l-.247-.931a.878.878,0,0,1,1.078-1.074l1.124.3h0l4.642,1.254a1.092,1.092,0,0,0,1.317-.637,1.057,1.057,0,0,0-.713-1.384l-5.338-1.443-1.363-.369a2.462,2.462,0,0,0-3.019,3.011l2.743,10.308a1.082,1.082,0,0,0,1.082.822Z" transform="translate(-347.507 -54.87)" fill="#91dc47"/>
        </g>
      </g>
    </g>
  </g>
</svg>
