<svg xmlns="http://www.w3.org/2000/svg" width="21" height="21" viewBox="0 0 21 21">
  <g id="Group_104" data-name="Group 104" transform="translate(2055 -393)">
    <g id="Group_98" data-name="Group 98" transform="translate(-2 78)">
      <g id="Group_91" data-name="Group 91" transform="translate(-3430 -34)">
        <g id="Ellipse_6" data-name="Ellipse 6" transform="translate(1377 349)" fill="none" stroke="#000" stroke-width="1">
          <circle cx="10.5" cy="10.5" r="10.5" stroke="none"/>
          <circle cx="10.5" cy="10.5" r="10" fill="none"/>
        </g>
      </g>
    </g>
    <path id="noun-organisation-4287592" d="M117.869,111.673h-.477v-.953a1.432,1.432,0,0,0-1.43-1.43H112.15v-1.43h.477a.477.477,0,0,0,.477-.477v-1.907a.477.477,0,0,0-.477-.477H110.72a.477.477,0,0,0-.477.477v1.907a.477.477,0,0,0,.477.477h.477v1.43h-3.813a1.432,1.432,0,0,0-1.43,1.43v.953h-.477a.477.477,0,0,0-.477.477v1.907a.477.477,0,0,0,.477.477h1.907a.477.477,0,0,0,.477-.477V112.15a.477.477,0,0,0-.477-.477h-.477v-.953a.477.477,0,0,1,.477-.477H111.2v1.43h-.477a.477.477,0,0,0-.477.477v1.907a.477.477,0,0,0,.477.477h1.907a.477.477,0,0,0,.477-.477V112.15a.477.477,0,0,0-.477-.477h-.477v-1.43h3.813a.477.477,0,0,1,.477.477v.953h-.477a.477.477,0,0,0-.477.477v1.907a.477.477,0,0,0,.477.477h1.907a.477.477,0,0,0,.477-.477V112.15A.477.477,0,0,0,117.869,111.673Zm-6.673-5.72h.953v.953H111.2Zm-4.29,7.626h-.953v-.953h.953Zm5.243,0H111.2v-.953h.953Zm5.243,0h-.953v-.953h.953Z" transform="translate(-2156 293)"/>
  </g>
</svg>
