<svg xmlns="http://www.w3.org/2000/svg" width="27.925" height="34.34" viewBox="0 0 27.925 34.34">
  <path id="Path_46" data-name="Path 46" d="M157.17,18.032a.69.69,0,0,1,.929-1.021,13.021,13.021,0,0,1,4.1,7.565.689.689,0,1,1-1.361.216,11.616,11.616,0,0,0-3.673-6.76Zm-8.44-1.019a.646.646,0,0,1-.006.087l.213,0h.539l.214,0a.691.691,0,0,1-.006-.087V15.855a.474.474,0,0,0-.476-.476.473.473,0,0,0-.478.476Zm-1.35.214a.7.7,0,0,1-.034-.214V15.855a1.861,1.861,0,0,1,3.721,0v1.158a.692.692,0,0,1-.034.213,9.515,9.515,0,0,1,7.913,9.342,33.306,33.306,0,0,0,.8,7.589,10.218,10.218,0,0,0,2.122,4.309,2.242,2.242,0,0,1-1.7,3.715h-6.014a4.954,4.954,0,0,1-9.891,0h-6.014a2.241,2.241,0,0,1-1.7-3.715,10.222,10.222,0,0,0,2.122-4.309,33.377,33.377,0,0,0,.8-7.539,9.467,9.467,0,0,1,2.779-6.735,9.569,9.569,0,0,1,5.133-2.657Zm-1.737,24.954a3.578,3.578,0,0,0,7.129,0ZM138.248,40.8h21.919a.873.873,0,0,0,.863-.986.856.856,0,0,0-.206-.443A11.551,11.551,0,0,1,158.4,34.5a34.839,34.839,0,0,1-.837-7.918,8.113,8.113,0,0,0-8.091-8.1h-.539a8.109,8.109,0,0,0-8.088,8.088,38.945,38.945,0,0,1-.84,7.929,11.549,11.549,0,0,1-2.419,4.871.858.858,0,0,0-.206.441.857.857,0,0,0,.863.989Zm-.677-16a.689.689,0,0,1-1.361-.216,12.963,12.963,0,0,1,1.4-4.128,13.592,13.592,0,0,1,2.7-3.437.69.69,0,1,1,.929,1.021,11.708,11.708,0,0,0-2.391,3.028,12.034,12.034,0,0,0-1.282,3.732Z" transform="translate(-135.246 -13.245)" fill="none" stroke="#fff" stroke-width="1.5"/>
</svg>
