<svg id="Group_101" data-name="Group 101" xmlns="http://www.w3.org/2000/svg" width="21" height="21" viewBox="0 0 21 21">
  <g id="Group_98" data-name="Group 98">
    <g id="Group_91" data-name="Group 91">
      <g id="Ellipse_6" data-name="Ellipse 6" fill="none" stroke="#000" stroke-width="1">
        <circle cx="10.5" cy="10.5" r="10.5" stroke="none"/>
        <circle cx="10.5" cy="10.5" r="10" fill="none"/>
      </g>
    </g>
  </g>
  <g id="noun-website-blocked-3677302" transform="translate(4.995 5)">
    <path id="Path_195" data-name="Path 195" d="M94,42.494h10.833V32H94Zm3.724-9.478h4.739v.677H97.724Zm-1.354,0h.677v.677H96.37Zm-1.354,0h.677v.677h-.677Zm0,1.693h8.8v6.77h-8.8Z" transform="translate(-94 -32)"/>
    <path id="Path_196" data-name="Path 196" d="M241.792,208l-1.422,1.388L238.949,208l-.948.948,1.422,1.422L238,211.758l.948.982,1.422-1.422,1.422,1.422.982-.982-1.422-1.388,1.422-1.422Z" transform="translate(-234.954 -204.276)"/>
  </g>
</svg>
