<svg xmlns="http://www.w3.org/2000/svg" width="21" height="21" viewBox="0 0 21 21">
  <g id="Group_249" data-name="Group 249" transform="translate(-154 -565)">
    <g id="Group_89" data-name="Group 89" transform="translate(158.463 569)">
      <path id="Path_185" data-name="Path 185" d="M174.418,6.807V.194A.194.194,0,0,0,174.224,0h-7.779a.194.194,0,0,0-.194.194V6.807a.194.194,0,0,0,.194.194h7.779A.194.194,0,0,0,174.418,6.807ZM174.029.389V1.556h-7.39V.389Zm-7.39,6.223V1.945h7.39V6.612Z" transform="translate(-164.5)" stroke="#000" stroke-width="0.1"/>
      <path id="Path_186" data-name="Path 186" d="M201.25,35h.389v.389h-.389Z" transform="translate(-198.722 -34.222)" stroke="#000" stroke-width="0.1"/>
      <path id="Path_187" data-name="Path 187" d="M236.25,35h.389v.389h-.389Z" transform="translate(-232.944 -34.222)" stroke="#000" stroke-width="0.1"/>
      <path id="Path_188" data-name="Path 188" d="M271.25,35h.389v.389h-.389Z" transform="translate(-267.166 -34.222)" stroke="#000" stroke-width="0.1"/>
      <path id="Path_189" data-name="Path 189" d="M367.5,35h2.917v.389H367.5Z" transform="translate(-361.276 -34.222)" stroke="#000" stroke-width="0.1"/>
      <path id="Path_190" data-name="Path 190" d="M264.445,105a1.945,1.945,0,1,0,1.945,1.945A1.947,1.947,0,0,0,264.445,105Zm-.381,2.876a3.418,3.418,0,0,1,.762,0,2.028,2.028,0,0,1-.381.557,2.026,2.026,0,0,1-.381-.557Zm-.133-.372a2.241,2.241,0,0,1-.058-.365h1.144a2.251,2.251,0,0,1-.058.365,3.789,3.789,0,0,0-1.028,0Zm.895-1.491a3.419,3.419,0,0,1-.762,0,2.029,2.029,0,0,1,.381-.557A2.026,2.026,0,0,1,264.826,106.013Zm-.381.412a3.8,3.8,0,0,0,.514-.039,2.241,2.241,0,0,1,.058.365h-1.144a2.254,2.254,0,0,1,.058-.365A3.793,3.793,0,0,0,264.445,106.425Zm-.964.325H262.9a1.544,1.544,0,0,1,.194-.578,3.74,3.74,0,0,0,.451.141,2.587,2.587,0,0,0-.067.437Zm0,.389a2.619,2.619,0,0,0,.067.437,3.74,3.74,0,0,0-.451.141,1.539,1.539,0,0,1-.194-.578Zm1.929,0h.578a1.545,1.545,0,0,1-.194.578,3.739,3.739,0,0,0-.451-.141A2.587,2.587,0,0,0,265.409,107.139Zm0-.389a2.613,2.613,0,0,0-.067-.437,3.737,3.737,0,0,0,.451-.141,1.539,1.539,0,0,1,.194.578Zm.139-.9a3.394,3.394,0,0,1-.327.094,2.464,2.464,0,0,0-.255-.463,1.563,1.563,0,0,1,.583.369Zm-1.624-.369a2.457,2.457,0,0,0-.255.463q-.166-.039-.327-.094a1.559,1.559,0,0,1,.582-.369Zm-.582,2.56a3.389,3.389,0,0,1,.327-.094,2.466,2.466,0,0,0,.255.463,1.563,1.563,0,0,1-.582-.369Zm1.624.369a2.458,2.458,0,0,0,.255-.463q.166.039.327.094A1.559,1.559,0,0,1,264.966,108.409Z" transform="translate(-258.61 -102.666)" stroke="#000" stroke-width="0.1"/>
      <path id="Path_191" data-name="Path 191" d="M280.832,315.638l.275.275.252-.251v1.3a.971.971,0,0,0-.5,1.632A1.363,1.363,0,0,0,280,319.86v.389a.194.194,0,0,0,.194.194h2.723a.194.194,0,0,0,.194-.194v-.389a1.363,1.363,0,0,0-.862-1.265.971.971,0,0,0-.5-1.632v-1.3l.251.251.275-.275-.583-.583a.194.194,0,0,0-.275,0Zm1.888,4.222v.194h-2.334v-.194a.973.973,0,0,1,.972-.972h.389A.973.973,0,0,1,282.72,319.86Zm-.583-1.945a.583.583,0,1,1-.583-.583A.584.584,0,0,1,282.136,317.915Z" transform="translate(-275.718 -307.996)" stroke="#000" stroke-width="0.1"/>
      <path id="Path_192" data-name="Path 192" d="M425.92,318.592a.971.971,0,0,0-.5-1.632v-.214a.584.584,0,0,0-.583-.583h-1.167a.2.2,0,0,1-.195-.194v-.309l.251.251.275-.275-.583-.583a.194.194,0,0,0-.275,0l-.583.583.275.275.252-.251v.309a.584.584,0,0,0,.583.583h1.167a.2.2,0,0,1,.194.194v.214a.971.971,0,0,0-.5,1.632,1.363,1.363,0,0,0-.862,1.265v.389a.194.194,0,0,0,.195.194h2.723a.194.194,0,0,0,.195-.194v-.389a1.363,1.363,0,0,0-.862-1.265Zm-.694-1.263a.583.583,0,1,1-.583.583A.584.584,0,0,1,425.227,317.329Zm1.167,2.723H424.06v-.194a.973.973,0,0,1,.972-.972h.389a.973.973,0,0,1,.972.972Z" transform="translate(-415.114 -307.994)" stroke="#000" stroke-width="0.1"/>
      <path id="Path_193" data-name="Path 193" d="M90.277,315.638l.275.275.252-.251v.308a.2.2,0,0,1-.194.194H89.442a.584.584,0,0,0-.583.583v.214a.971.971,0,0,0-.5,1.632,1.363,1.363,0,0,0-.862,1.265v.389a.194.194,0,0,0,.194.194h2.723a.194.194,0,0,0,.194-.194v-.389a1.363,1.363,0,0,0-.862-1.265.971.971,0,0,0-.5-1.632v-.214a.2.2,0,0,1,.194-.194h1.167a.584.584,0,0,0,.583-.583v-.308l.251.251.275-.275-.583-.583a.194.194,0,0,0-.275,0Zm-.057,4.222v.194H87.886v-.194a.973.973,0,0,1,.972-.972h.389A.973.973,0,0,1,90.22,319.86Zm-.583-1.945a.583.583,0,1,1-.583-.583A.584.584,0,0,1,89.636,317.915Z" transform="translate(-87.497 -307.996)" stroke="#000" stroke-width="0.1"/>
    </g>
    <g id="Group_88" data-name="Group 88" transform="translate(154 565)">
      <g id="Ellipse_6" data-name="Ellipse 6" fill="none" stroke="#000" stroke-width="1">
        <circle cx="10.5" cy="10.5" r="10.5" stroke="none"/>
        <circle cx="10.5" cy="10.5" r="10" fill="none"/>
      </g>
    </g>
  </g>
</svg>
