<svg id="Group_97" data-name="Group 97" xmlns="http://www.w3.org/2000/svg" width="21" height="21" viewBox="0 0 21 21">
  <g id="Group_87" data-name="Group 87" transform="translate(4 3)">
    <path id="Path_103" data-name="Path 103" d="M121.7,21.175a5.872,5.872,0,0,0-.786-.139,1.659,1.659,0,0,0,.667-1.388,1.248,1.248,0,1,0-2.495,0,1.661,1.661,0,0,0,.664,1.387,5.458,5.458,0,0,0-.785.141c-.73.188-1.132.592-1.132,1.137v1.744a.549.549,0,0,0,.548.548h3.905a.549.549,0,0,0,.548-.548V22.313c0-.544-.413-.959-1.134-1.138Zm-2.171-1.528a.8.8,0,1,1,1.608,0c0,.621-.361,1.126-.8,1.126S119.533,20.269,119.533,19.647Zm2.861,4.409a.1.1,0,0,1-.1.1H121.8V22.789a.222.222,0,0,0-.443,0v1.373h-2.044V22.789a.222.222,0,1,0-.443,0v1.373h-.487a.1.1,0,0,1-.1-.1V22.313c0-.415.435-.614.8-.708a5,5,0,0,1,1.247-.158,5.274,5.274,0,0,1,1.272.158c.3.074.8.264.8.708v1.744Zm3.239-.588V20.035a1.233,1.233,0,1,0-1.161-2.012L121.5,16.306a1.234,1.234,0,1,0-2.323,0L116.2,18.023a1.233,1.233,0,1,0-1.161,2.012v3.434A1.233,1.233,0,1,0,116.2,25.48l2.974,1.717a1.234,1.234,0,1,0,2.323,0l2.974-1.717a1.233,1.233,0,1,0,1.161-2.012Zm-.222-5.437a.79.79,0,1,1-.79.79A.791.791,0,0,1,125.412,18.032Zm-5.075-2.93a.79.79,0,1,1-.79.79A.791.791,0,0,1,120.337,15.1Zm-5.865,3.72a.79.79,0,1,1,.79.79A.791.791,0,0,1,114.472,18.822Zm.79,6.65a.79.79,0,1,1,.79-.79A.791.791,0,0,1,115.262,25.472Zm5.075,2.93a.79.79,0,1,1,.79-.79A.791.791,0,0,1,120.337,28.4Zm.939-1.589a1.231,1.231,0,0,0-1.879,0L116.423,25.1a1.233,1.233,0,0,0-.94-1.628V20.035a1.233,1.233,0,0,0,.94-1.628L119.4,16.69a1.231,1.231,0,0,0,1.879,0l2.974,1.717a1.233,1.233,0,0,0,.94,1.628v3.434a1.233,1.233,0,0,0-.94,1.628Zm4.136-1.342a.79.79,0,1,1,.79-.79A.791.791,0,0,1,125.412,25.472Z" transform="translate(-114.028 -14.658)" stroke="#000" stroke-width="0.2"/>
  </g>
  <g id="Group_91" data-name="Group 91">
    <g id="Ellipse_6" data-name="Ellipse 6" fill="none" stroke="#000" stroke-width="1">
      <circle cx="10.5" cy="10.5" r="10.5" stroke="none"/>
      <circle cx="10.5" cy="10.5" r="10" fill="none"/>
    </g>
  </g>
</svg>
